<svg width="122" height="24" viewBox="0 0 122 24" fill="none" xmlns="http://www.w3.org/2000/svg">
<path fill-rule="evenodd" clip-rule="evenodd" d="M15.3334 7.01118C14.3467 6.3519 13.1867 6 12 6V0C14.3734 0 16.6934 0.703788 18.6668 2.02237C20.6402 3.34094 22.1783 5.21509 23.0866 7.40778C23.9948 9.60048 24.2324 12.0133 23.7694 14.3411C23.3064 16.6688 22.1635 18.8071 20.4853 20.4853C18.8071 22.1635 16.6688 23.3064 14.3411 23.7694C12.0133 24.2324 9.60048 23.9948 7.40778 23.0866C5.21508 22.1783 3.34094 20.6402 2.02237 18.6668C0.703788 16.6934 0 14.3734 0 12H6C6 13.1867 6.3519 14.3467 7.01118 15.3334C7.67046 16.3201 8.60754 17.0891 9.70392 17.5433C10.8002 17.9974 12.0067 18.1162 13.1705 17.8847C14.3344 17.6532 15.4035 17.0818 16.2427 16.2427C17.0818 15.4035 17.6532 14.3344 17.8847 13.1705C18.1162 12.0067 17.9974 10.8002 17.5433 9.70392C17.0891 8.60754 16.3201 7.67046 15.3334 7.01118Z" fill="#6B57F5"/>
<path fill-rule="evenodd" clip-rule="evenodd" d="M6 3.17096e-06C6 0.787934 5.84481 1.56815 5.54328 2.29611C5.24175 3.02406 4.79979 3.68549 4.24264 4.24264C3.68549 4.7998 3.02406 5.24175 2.2961 5.54328C1.56814 5.84481 0.787929 6 2.62266e-07 6L0 12C1.57586 12 3.13629 11.6896 4.5922 11.0866C6.04812 10.4835 7.371 9.59958 8.48526 8.48526C9.59958 7.371 10.4835 6.04812 11.0866 4.5922C11.6896 3.13629 12 1.57586 12 0L6 3.17096e-06Z" fill="#6B57F5"/>
<path d="M75.371 8.67151H72.4598V17.9189H75.371V8.67151Z" fill="#0A0A0A"/>
<path d="M72.7838 6.93997C73.088 7.24441 73.4684 7.39663 73.925 7.39663C74.3816 7.39663 74.7561 7.24441 75.0476 6.93997C75.3398 6.62287 75.4856 6.24229 75.4856 5.79832C75.4856 5.34167 75.3398 4.96111 75.0476 4.65668C74.7561 4.35223 74.3816 4.20001 73.925 4.20001C73.4684 4.20001 73.088 4.35223 72.7838 4.65668C72.4916 4.96111 72.3459 5.34167 72.3459 5.79832C72.3459 6.24229 72.4916 6.62287 72.7838 6.93997Z" fill="#0A0A0A"/>
<path d="M30.6934 17.9189V4.48542H33.6807V15.2931H39.6364V17.9189H30.6934Z" fill="#0A0A0A"/>
<path fill-rule="evenodd" clip-rule="evenodd" d="M45.0161 18.1282C44.0647 18.1282 43.2022 17.9189 42.4283 17.5003C41.6672 17.069 41.0647 16.4855 40.6207 15.7497C40.1768 15.014 39.9548 14.1895 39.9548 13.2762C39.9548 12.3628 40.1768 11.5447 40.6207 10.8216C41.0647 10.0986 41.6672 9.52772 42.4283 9.10916C43.1894 8.67782 44.0521 8.46218 45.0161 8.46218C45.9802 8.46218 46.8427 8.67152 47.6038 9.09008C48.3649 9.5087 48.9675 10.0859 49.4114 10.8216C49.8554 11.5447 50.0774 12.3628 50.0774 13.2762C50.0774 14.1895 49.8554 15.014 49.4114 15.7497C48.9675 16.4855 48.3649 17.069 47.6038 17.5003C46.8427 17.9189 45.9802 18.1282 45.0161 18.1282ZM45.0161 15.4834C45.4347 15.4834 45.8026 15.3946 46.1197 15.217C46.4368 15.0267 46.6778 14.7667 46.8427 14.4369C47.0203 14.0944 47.1091 13.7074 47.1091 13.2762C47.1091 12.8449 47.0203 12.4707 46.8427 12.1536C46.6651 11.8237 46.4178 11.5701 46.1006 11.3925C45.7962 11.2021 45.4347 11.107 45.0161 11.107C44.6102 11.107 44.2487 11.2021 43.9315 11.3925C43.6144 11.5701 43.367 11.8237 43.1894 12.1536C43.0118 12.4834 42.9231 12.8639 42.9231 13.2952C42.9231 13.7138 43.0118 14.0944 43.1894 14.4369C43.367 14.7667 43.6144 15.0267 43.9315 15.217C44.2487 15.3946 44.6102 15.4834 45.0161 15.4834Z" fill="#0A0A0A"/>
<path fill-rule="evenodd" clip-rule="evenodd" d="M52.3831 21.5341C53.1568 21.8893 54.0511 22.0669 55.066 22.0669C56.0554 22.0669 56.937 21.8703 57.7108 21.477C58.4846 21.0838 59.0934 20.5384 59.5374 19.8407C59.9813 19.143 60.2036 18.3185 60.2036 17.3671V8.67152H57.3492V9.29282C57.1369 9.11414 56.8958 8.96414 56.6262 8.84276C56.1314 8.60174 55.567 8.4812 54.9328 8.4812C54.0829 8.4812 53.3281 8.68418 52.6685 9.09008C52.0088 9.48332 51.4888 10.0288 51.1082 10.7265C50.7276 11.4115 50.5374 12.1852 50.5374 13.0479C50.5374 13.8978 50.7276 14.6715 51.1082 15.3692C51.4888 16.0669 52.0088 16.6187 52.6685 17.0246C53.3281 17.4305 54.0829 17.6335 54.9328 17.6335C55.5543 17.6335 56.1188 17.513 56.6262 17.272C56.872 17.1552 57.094 17.0176 57.2921 16.8592V17.4432C57.2921 18.0901 57.0829 18.5912 56.6642 18.9464C56.2583 19.3016 55.6939 19.4791 54.9708 19.4791C54.3873 19.4791 53.8862 19.3777 53.4676 19.1747C53.0617 18.9718 52.6938 18.6736 52.364 18.2804L50.5754 20.069C51.0194 20.7033 51.622 21.1917 52.3831 21.5341ZM56.531 14.7793C56.2393 14.9569 55.8905 15.0457 55.4845 15.0457C55.0786 15.0457 54.7234 14.9569 54.419 14.7793C54.1272 14.6017 53.8989 14.3607 53.734 14.0563C53.5691 13.7392 53.4866 13.403 53.4866 13.0479C53.4866 12.6673 53.5691 12.3248 53.734 12.0204C53.8989 11.7159 54.1336 11.4749 54.438 11.2973C54.7424 11.1197 55.0913 11.0309 55.4845 11.0309C55.8905 11.0309 56.2393 11.1197 56.531 11.2973C56.8355 11.4749 57.0638 11.7159 57.2161 12.0204C57.3809 12.3248 57.4634 12.6673 57.4634 13.0479C57.4634 13.4284 57.3809 13.7709 57.2161 14.0753C57.0638 14.3671 56.8355 14.6017 56.531 14.7793Z" fill="#0A0A0A"/>
<path fill-rule="evenodd" clip-rule="evenodd" d="M66.3302 18.1282C65.3786 18.1282 64.5158 17.9189 63.7424 17.5003C62.981 17.069 62.3786 16.4855 61.9346 15.7497C61.4906 15.014 61.2686 14.1895 61.2686 13.2762C61.2686 12.3628 61.4906 11.5447 61.9346 10.8216C62.3786 10.0986 62.981 9.52772 63.7424 9.10916C64.5032 8.67782 65.366 8.46218 66.3302 8.46218C67.2938 8.46218 68.1566 8.67152 68.9174 9.09008C69.6788 9.5087 70.2812 10.0859 70.7252 10.8216C71.1692 11.5447 71.3912 12.3628 71.3912 13.2762C71.3912 14.1895 71.1692 15.014 70.7252 15.7497C70.2812 16.4855 69.6788 17.069 68.9174 17.5003C68.1566 17.9189 67.2938 18.1282 66.3302 18.1282ZM66.3302 15.4834C66.7484 15.4834 67.1162 15.3946 67.4336 15.217C67.7504 15.0267 67.9916 14.7667 68.1566 14.4369C68.3342 14.0944 68.423 13.7074 68.423 13.2762C68.423 12.8449 68.3342 12.4707 68.1566 12.1536C67.979 11.8237 67.7318 11.5701 67.4144 11.3925C67.1102 11.2021 66.7484 11.107 66.3302 11.107C65.924 11.107 65.5622 11.2021 65.2454 11.3925C64.928 11.5701 64.6808 11.8237 64.5032 12.1536C64.3256 12.4834 64.2368 12.8639 64.2368 13.2952C64.2368 13.7138 64.3256 14.0944 64.5032 14.4369C64.6808 14.7667 64.928 15.0267 65.2454 15.217C65.5622 15.3946 65.924 15.4834 66.3302 15.4834Z" fill="#0A0A0A"/>
<path fill-rule="evenodd" clip-rule="evenodd" d="M82.3683 18.1092C81.7473 18.1092 81.176 17.9887 80.6558 17.7477C80.3822 17.6208 80.135 17.4694 79.9142 17.2933V21.8196H77.0408V8.67152H79.952V9.30974C80.1632 9.137 80.3979 8.98766 80.6558 8.86178C81.176 8.60804 81.7473 8.4812 82.3683 8.4812C83.2437 8.4812 84.0176 8.69054 84.6896 9.10916C85.3748 9.52772 85.9076 10.0986 86.288 10.8216C86.6816 11.5447 86.8778 12.3692 86.8778 13.2952C86.8778 14.2212 86.6816 15.0457 86.288 15.7688C85.9076 16.4919 85.3748 17.0626 84.6896 17.4813C84.0176 17.8999 83.2437 18.1092 82.3683 18.1092ZM81.836 15.4834C82.2542 15.4834 82.6161 15.3882 82.9202 15.198C83.2377 15.0077 83.4848 14.7476 83.6624 14.4178C83.84 14.088 83.9289 13.7138 83.9289 13.2952C83.9289 12.8639 83.84 12.4834 83.6624 12.1536C83.4848 11.8237 83.2377 11.5701 82.9202 11.3925C82.6161 11.2021 82.2608 11.107 81.8546 11.107C81.449 11.107 81.0872 11.2021 80.7704 11.3925C80.4656 11.5701 80.225 11.8237 80.0474 12.1536C79.8698 12.4834 79.781 12.8639 79.781 13.2952C79.781 13.7138 79.8632 14.088 80.0282 14.4178C80.2058 14.7476 80.453 15.0077 80.7704 15.198C81.0872 15.3882 81.4424 15.4834 81.836 15.4834Z" fill="#0A0A0A"/>
<path d="M89.7273 17.9379C90.2601 18.0775 90.7988 18.1472 91.3442 18.1472C92.4986 18.1472 93.4118 17.8809 94.0844 17.3481C94.769 16.8153 95.1116 16.0986 95.1116 15.198C95.1116 14.6145 95.0042 14.1451 94.7882 13.7899C94.5728 13.4221 94.2938 13.1303 93.9512 12.9147C93.6086 12.699 93.2468 12.5277 92.8664 12.4009C92.486 12.274 92.1242 12.1662 91.7822 12.0774C91.4396 11.9886 91.1606 11.8872 90.9446 11.773C90.7292 11.6588 90.6212 11.5066 90.6212 11.3163C90.6212 11.1387 90.704 11.0055 90.8684 10.9167C91.0334 10.8153 91.2806 10.7646 91.6106 10.7646C91.9532 10.7646 92.3018 10.8343 92.657 10.9738C93.0248 11.1133 93.3549 11.3544 93.6465 11.6969L95.3018 10.0225C94.8837 9.48967 94.3382 9.09007 93.6656 8.82373C93.0062 8.54467 92.2832 8.40512 91.4966 8.40512C90.7484 8.40512 90.0951 8.53195 89.5371 8.78563C88.9785 9.03937 88.5471 9.38822 88.2429 9.83216C87.9387 10.2634 87.7863 10.7772 87.7863 11.3734C87.7863 11.9316 87.8943 12.3946 88.1097 12.7624C88.3251 13.1176 88.6046 13.3967 88.9466 13.5996C89.2892 13.8026 89.651 13.9612 90.0314 14.0753C90.4118 14.1895 90.7736 14.2973 91.1162 14.3988C91.4582 14.4876 91.7378 14.5954 91.9532 14.7223C92.1818 14.8365 92.2958 15.0077 92.2958 15.236C92.2958 15.4136 92.2004 15.5531 92.0102 15.6546C91.8326 15.7561 91.5728 15.8068 91.2302 15.8068C90.7352 15.8068 90.2787 15.718 89.8605 15.5404C89.4417 15.3502 89.0799 15.0901 88.7757 14.7603L87.1203 16.4347C87.4377 16.7772 87.8181 17.0817 88.2621 17.3481C88.7187 17.6017 89.2071 17.7984 89.7273 17.9379Z" fill="#0A0A0A"/>
<path d="M100.42 18.1282C99.5708 18.1282 98.816 17.9569 98.1566 17.6145C97.5092 17.2593 97.0022 16.7772 96.6344 16.1683C96.266 15.5468 96.0824 14.8365 96.0824 14.0373V8.67151H98.9937V13.9992C98.9937 14.3163 99.0441 14.5891 99.146 14.8174C99.26 15.0457 99.425 15.2233 99.6404 15.3502C99.8564 15.477 100.116 15.5404 100.42 15.5404C100.852 15.5404 101.194 15.4072 101.448 15.1408C101.702 14.8618 101.829 14.4813 101.829 13.9992V8.67151H104.74V14.0182C104.74 14.8301 104.556 15.5468 104.188 16.1683C103.82 16.7772 103.313 17.2593 102.666 17.6145C102.019 17.9569 101.271 18.1282 100.42 18.1282Z" fill="#0A0A0A"/>
<path d="M109.098 8.67152H106.187V17.9189H109.098V12.5151C109.098 12.198 109.162 11.9316 109.288 11.7159C109.428 11.5003 109.612 11.3353 109.84 11.2212C110.069 11.0943 110.329 11.0309 110.62 11.0309C111.039 11.0309 111.388 11.1641 111.667 11.4305C111.959 11.6842 112.105 12.0457 112.105 12.5151V17.9189H115.016V12.5151C115.016 12.198 115.08 11.9316 115.206 11.7159C115.346 11.5003 115.53 11.3353 115.758 11.2212C115.986 11.0943 116.247 11.0309 116.538 11.0309C116.957 11.0309 117.306 11.1641 117.585 11.4305C117.876 11.6842 118.022 12.0457 118.022 12.5151V17.9189H120.934V12.1916C120.934 11.4178 120.769 10.7582 120.439 10.2127C120.121 9.65456 119.684 9.22964 119.126 8.93792C118.581 8.63342 117.952 8.4812 117.242 8.4812C116.519 8.4812 115.866 8.63978 115.282 8.95694C114.903 9.15896 114.572 9.41972 114.288 9.73916C114.024 9.40501 113.702 9.1316 113.322 8.91884C112.815 8.62712 112.238 8.4812 111.591 8.4812C110.906 8.4812 110.291 8.62712 109.746 8.91884C109.508 9.04022 109.293 9.1856 109.098 9.35498V8.67152Z" fill="#0A0A0A"/>
</svg>